<svg width="32" height="25" viewBox="0 0 32 25" fill="none" xmlns="http://www.w3.org/2000/svg">
<path d="M29.3372 19.2664H2.67057C1.20017 19.2664 0.00390625 18.0701 0.00390625 16.5997V5.93307C0.00390625 2.69841 2.63591 0.0664062 5.87057 0.0664062H26.1372C29.3719 0.0664062 32.0039 2.69841 32.0039 5.93307V16.5997C32.0039 18.0701 30.8076 19.2664 29.3372 19.2664ZM5.87057 1.13307C3.22417 1.13307 1.07057 3.28614 1.07057 5.93307V16.5997C1.07057 17.4819 1.78844 18.1997 2.67057 18.1997H29.3372C30.2194 18.1997 30.9372 17.4819 30.9372 16.5997V5.93307C30.9372 3.28614 28.7836 1.13307 26.1372 1.13307H5.87057Z" fill="white"/>
<path d="M24.5372 19.2664C24.3958 19.2664 24.2601 19.2102 24.1601 19.1102C24.0601 19.0102 24.0039 18.8745 24.0039 18.7331V0.59974C24.0039 0.458291 24.0601 0.322635 24.1601 0.222616C24.2601 0.122597 24.3958 0.0664062 24.5372 0.0664062C24.6787 0.0664062 24.8143 0.122597 24.9144 0.222616C25.0144 0.322635 25.0706 0.458291 25.0706 0.59974V18.7331C25.0706 18.8745 25.0144 19.0102 24.9144 19.1102C24.8143 19.2102 24.6787 19.2664 24.5372 19.2664Z" fill="white"/>
<path d="M31.4701 12.8677H24.5367C23.8375 12.8565 23.8343 11.8128 24.5367 11.801H31.4701C32.1687 11.8117 32.173 12.856 31.4701 12.8677ZM9.07005 2.73438H16.0034V10.7344H9.07005V2.73438ZM5.33672 2.73438C4.48803 2.73438 3.67409 3.07152 3.07398 3.67163C2.47386 4.27175 2.13672 5.08568 2.13672 5.93438V9.66771C2.13672 9.95061 2.2491 10.2219 2.44914 10.422C2.64918 10.622 2.92049 10.7344 3.20339 10.7344H8.53672V2.73438H5.33672ZM21.8701 2.73438H16.5367V10.7344H21.8701C22.153 10.7344 22.4243 10.622 22.6243 10.422C22.8243 10.2219 22.9367 9.95061 22.9367 9.66771V3.80104C22.9367 3.51814 22.8243 3.24683 22.6243 3.04679C22.4243 2.84676 22.153 2.73438 21.8701 2.73438ZM11.7367 18.7344C11.7367 19.7245 11.3434 20.6741 10.6433 21.3742C9.94312 22.0744 8.99353 22.4677 8.00339 22.4677C3.05672 22.2848 3.05779 15.1834 8.00339 15.001C8.99353 15.001 9.94312 15.3944 10.6433 16.0945C11.3434 16.7946 11.7367 17.7442 11.7367 18.7344Z" fill="white"/>
<path d="M8.00495 22.9995C5.65241 22.9995 3.73828 21.0854 3.73828 18.7329C3.97295 13.0726 12.038 13.0742 12.2716 18.7329C12.2716 21.0854 10.3575 22.9995 8.00495 22.9995ZM8.00495 15.5329C6.24015 15.5329 4.80495 16.9681 4.80495 18.7329C4.95481 22.9681 11.0556 22.9675 11.2049 18.7329C11.2049 16.9681 9.76975 15.5329 8.00495 15.5329ZM27.2049 18.7329C27.2049 19.723 26.8116 20.6726 26.1115 21.3727C25.4113 22.0729 24.4618 22.4662 23.4716 22.4662C18.5249 22.2833 18.526 15.1819 23.4716 14.9995C24.4618 14.9995 25.4113 15.3929 26.1115 16.093C26.8116 16.7932 27.2049 17.7427 27.2049 18.7329Z" fill="white"/>
<path d="M23.4723 23.0016C21.1197 23.0016 19.2056 21.0874 19.2056 18.7349C19.4403 13.0746 27.5053 13.0762 27.7389 18.7349C27.7389 21.0874 25.8248 23.0016 23.4723 23.0016ZM23.4723 15.5349C21.7075 15.5349 20.2723 16.9701 20.2723 18.7349C20.4221 22.9701 26.5229 22.9696 26.6723 18.7349C26.6723 16.9701 25.2371 15.5349 23.4723 15.5349ZM14.4056 24.0682H1.07228C0.375746 24.0576 0.367746 23.0138 1.07228 23.0016H14.4056C15.1021 23.0122 15.1101 24.056 14.4056 24.0682ZM26.6723 24.0682H19.2056C18.5069 24.0576 18.5027 23.0133 19.2056 23.0016H26.6723C27.3709 23.0122 27.3752 24.0565 26.6723 24.0682ZM29.8723 24.0682H28.8056C28.1048 24.0565 28.1043 23.0133 28.8056 23.0016H29.8723C30.5731 23.0133 30.5736 24.0565 29.8723 24.0682ZM31.4723 5.9349V12.3349H24.5389V0.601562H26.1389C29.0829 0.601562 31.4723 2.9909 31.4723 5.9349Z" fill="white"/>
</svg>
