<svg width="26" height="32" viewBox="0 0 26 32" fill="none" xmlns="http://www.w3.org/2000/svg">
<path d="M6.83522 28.4711L11.2944 17.706L7.71347 16.2227L2.57585 28.6256C2.35941 29.1482 2.8491 29.6867 3.38978 29.5208L6.30297 28.6268C6.38542 28.6009 6.47224 28.592 6.55822 28.6005L6.83522 28.4711Z" fill="#F2BE22"/>
<path d="M11.1041 17.625L6.55859 28.5986C6.66955 28.6083 6.77631 28.6456 6.86917 28.7072C6.96203 28.7687 7.03804 28.8524 7.09028 28.9508L8.51803 31.6429C8.78303 32.1426 9.51009 32.1081 9.72659 31.5856L14.8642 19.1826L11.1041 17.625Z" fill="#F2BE22"/>
<path d="M14.9968 17.5859L11.1367 19.1849L16.2743 31.5879C16.4908 32.1105 17.2178 32.145 17.4829 31.6453L18.9107 28.9532C18.9534 28.8724 19.0123 28.8013 19.0837 28.7442L19.4333 28.3024L14.9968 17.5859Z" fill="#F2BE22"/>
<path d="M23.4236 28.6257L18.286 16.2227L14.5391 17.7747L19.0829 28.7442C19.1679 28.6762 19.2682 28.6299 19.3752 28.6094C19.4821 28.5889 19.5924 28.5949 19.6965 28.6268L22.6097 29.5208C23.1504 29.6868 23.6401 29.1482 23.4236 28.6257Z" fill="#F2BE22"/>
<path d="M9.65509 1.28338C10.0555 1.40771 10.4801 1.43243 10.8922 1.35539C11.3043 1.27835 11.6914 1.10188 12.0198 0.84131C12.5934 0.386221 13.4049 0.38624 13.9784 0.841308L13.9784 0.841325C14.3068 1.10188 14.6939 1.27833 15.106 1.35537C15.5181 1.4324 15.9427 1.4077 16.3431 1.28339L16.3431 1.28338C17.0423 1.06623 17.799 1.35937 18.1694 1.99092C18.3815 2.35252 18.6787 2.65688 19.0351 2.87758C19.3916 3.09827 19.7965 3.22863 20.2147 3.25733L20.2489 2.7585M9.65509 1.28338L9.80328 0.806178L9.6551 1.28338C9.6551 1.28338 9.65509 1.28338 9.65509 1.28338ZM9.65509 1.28338C8.9559 1.06628 8.19921 1.3594 7.82878 1.99092L7.3975 1.73794C7.8855 0.906 8.88231 0.519875 9.80337 0.805875C10.126 0.906069 10.4682 0.92599 10.8003 0.863907C11.1324 0.801823 11.4443 0.659613 11.709 0.449625C12.4646 -0.149875 13.5336 -0.149875 14.2892 0.449625C14.5538 0.659599 14.8658 0.8018 15.1979 0.863883C15.5299 0.925965 15.8722 0.906053 16.1948 0.805875C17.1159 0.519812 18.1127 0.906 18.6007 1.73794C18.7716 2.02934 19.0111 2.27462 19.2983 2.45247C19.5856 2.63032 19.9119 2.73537 20.2489 2.7585M20.2489 2.7585L20.2147 3.25733C20.9451 3.30743 21.5448 3.8541 21.6621 4.57686L20.2489 2.7585ZM25.0046 10.2181L24.6432 10.5636C25.1493 11.0928 25.2241 11.9008 24.8239 12.5139C24.5948 12.865 24.4548 13.2666 24.4161 13.6841C24.3774 14.1015 24.4412 14.5221 24.602 14.9093C24.8827 15.5855 24.6606 16.366 24.066 16.7931C23.7255 17.0377 23.4499 17.3617 23.263 17.7369C23.0761 18.1122 22.9837 18.5274 22.9937 18.9465C23.0112 19.6785 22.5222 20.326 21.8134 20.5095C21.4075 20.6146 21.0335 20.8171 20.7237 21.0996C20.4138 21.382 20.1777 21.7358 20.0356 22.1302L20.0356 22.1302C19.7875 22.819 19.0976 23.2462 18.3703 23.1613C17.9539 23.1126 17.532 23.1663 17.141 23.3178C16.7501 23.4692 16.4021 23.7138 16.1271 24.0303L16.1271 24.0303C15.6469 24.583 14.8493 24.7321 14.2019 24.3902C13.8312 24.1944 13.4183 24.0921 12.9991 24.0921C12.5798 24.0921 12.167 24.1944 11.7963 24.3902L12.0297 24.8323L11.7962 24.3902C11.1488 24.7321 10.3512 24.583 9.87101 24.0303L9.49356 24.3582L9.87101 24.0303C9.59606 23.7138 9.24801 23.4692 8.85709 23.3178C8.46616 23.1663 8.04419 23.1126 7.62779 23.1613C6.90058 23.2462 6.21068 22.8191 5.96253 22.1302C5.82048 21.7358 5.58429 21.382 5.27448 21.0995C4.96466 20.8171 4.59059 20.6146 4.18473 20.5095L4.05944 20.9936L4.18473 20.5095C3.47592 20.326 2.98691 19.6785 3.00442 18.9465L2.50456 18.9346L3.00442 18.9465C3.01443 18.5274 2.92199 18.1122 2.73513 17.7369C2.54826 17.3617 2.27262 17.0377 1.93213 16.7931L1.64171 17.1974L1.93213 16.7931C1.33748 16.366 1.11543 15.5855 1.39616 14.9093C1.39616 14.9093 1.39616 14.9093 1.39616 14.9093L0.934374 14.7176C1.06392 14.4055 1.11533 14.0666 1.08416 13.7302C1.05299 13.3938 0.940169 13.0701 0.755499 12.7872C0.228312 11.9795 0.326936 10.9151 0.993561 10.2181C1.22706 9.9739 1.39743 9.67643 1.48989 9.35149C1.58235 9.02655 1.5941 8.68395 1.52412 8.35344M1.52412 8.35344L1.52425 8.35341L1.52412 8.35344Z" stroke="white"/>
<path d="M18.6636 12.5348C18.6636 8.30328 15.9337 4.70953 12.1391 3.41797C7.48588 3.85222 3.84375 7.76816 3.84375 12.5348C3.84375 17.3015 7.48588 21.2175 12.1391 21.6517C15.9337 20.3602 18.6636 16.7665 18.6636 12.5348Z" fill="white"/>
<path d="M13.0003 3.37891C12.3141 3.37858 11.6301 3.45514 10.9609 3.60716C15.0364 4.53416 18.0784 8.1796 18.0784 12.5358C18.0784 16.892 15.0364 20.5374 10.9609 21.4644C11.6301 21.6164 12.3141 21.693 13.0003 21.6927C18.0575 21.6927 22.1572 17.593 22.1572 12.5358C22.1572 7.4786 18.0575 3.37891 13.0003 3.37891Z" fill="white"/>
<path d="M16.4145 18.1781C16.7641 18.4134 17.217 18.0843 17.1012 17.6792L16.9115 17.015C16.7082 17.3764 16.4807 17.7236 16.2305 18.0542L16.4145 18.1781ZM18.9482 10.3805L17.8147 10.3398C17.9551 10.911 18.0401 11.4943 18.0685 12.0817L19.2105 11.1878C19.5422 10.9281 19.3692 10.3957 18.9482 10.3805Z" fill="#E8AE4D"/>
<path d="M13.2521 16.0492L16.4125 18.1766C16.5368 18.2602 16.6741 18.2725 16.7943 18.2355C16.9061 18.0836 17.0135 17.9284 17.1162 17.7702C17.1136 17.7389 17.108 17.7079 17.0993 17.6777L16.0527 14.0146C16.028 13.9282 16.0296 13.8364 16.0574 13.7509C16.0852 13.6654 16.1378 13.5901 16.2086 13.5347L18.6222 11.6453C18.5827 11.2127 18.5138 10.7834 18.4162 10.3601L15.1389 10.2425C15.0491 10.2393 14.9623 10.2094 14.8896 10.1566C14.8168 10.1037 14.7615 10.0304 14.7307 9.94598L13.4242 6.36717C13.2797 5.97136 12.7199 5.97136 12.5754 6.36717L11.269 9.94586C11.2382 10.0303 11.1829 10.1036 11.1101 10.1564C11.0374 10.2093 10.9506 10.2392 10.8608 10.2424L7.05354 10.379C6.63241 10.3941 6.45948 10.9265 6.79123 11.1862L9.7911 13.5346C9.86187 13.59 9.91451 13.6653 9.94229 13.7508C9.97007 13.8362 9.97172 13.9281 9.94704 14.0145L8.90041 17.6776C8.78466 18.0828 9.23754 18.4118 9.5871 18.1765L12.7475 16.0492C12.8221 15.999 12.91 15.9722 12.9998 15.9723C13.0897 15.9723 13.1775 15.9991 13.2521 16.0492Z" fill="#F2BE22"/>
</svg>
