<svg width="21" height="28" viewBox="0 0 21 28" fill="none" xmlns="http://www.w3.org/2000/svg">
<path d="M16.5771 19.9327L16.1322 19.2104L15.4834 17.7716L13.9521 16.8164H7.06152L5.53027 17.7716L3.99902 17.6331L2.7318 17.971C1.41717 18.3216 0.499023 19.5167 0.499023 20.8773V25.5951L6.60805 28.0014H10.5068L17.6764 24.64L18.0002 22.3139C18.0002 20.9533 17.8918 20.2833 16.5771 19.9327Z" fill="#B34B1E"/>
<path d="M18.2818 17.971L17.0146 17.6331L15.4834 17.7716L13.9521 16.8164H10.5068V28.0013H14.4056L20.5146 25.5951V20.8772C20.5146 19.5167 19.5965 18.3216 18.2818 17.971Z" fill="#B34B1E"/>
<path d="M13.9521 23.1328H7.06152C6.60849 23.1328 6.24121 22.7655 6.24121 22.3125C6.24121 21.8595 6.60849 21.4922 7.06152 21.4922H13.9521C14.4052 21.4922 14.7725 21.8595 14.7725 22.3125C14.7725 22.7655 14.4052 23.1328 13.9521 23.1328Z" fill="#B34B1E"/>
<path d="M3.99902 17.6331V28.0013H6.60805C6.62659 27.9087 7.06152 24.9992 7.06152 23.1888V17.7201L7.6084 17.3326L7.06152 16.8164L3.99902 17.6331Z" fill="#B34B1E"/>
<path d="M13.9521 16.8164L13.4053 17.3047L13.9521 17.7201V23.1888C13.9521 24.9992 14.3871 27.9087 14.4056 28.0013H17.0146V17.6331L13.9521 16.8164Z" fill="#B34B1E"/>
<path d="M18.6553 21.9297H17.0146C15.8065 21.9297 14.8271 22.9091 14.8271 24.1172V25.8125C14.8271 27.0206 15.8065 28 17.0146 28H18.6553C19.8634 28 20.8428 27.0206 20.8428 25.8125V24.1172C20.8428 22.9091 19.8634 21.9297 18.6553 21.9297Z" fill="#B34B1E"/>
<path d="M3.99902 21.9297H2.3584C1.1503 21.9297 0.170898 22.9091 0.170898 24.1172V25.8125C0.170898 27.0206 1.1503 28 2.3584 28H3.99902C5.20712 28 6.18652 27.0206 6.18652 25.8125V24.1172C6.18652 22.9091 5.20712 21.9297 3.99902 21.9297Z" fill="#B34B1E"/>
<path d="M13.1318 12.6875H7.88184C7.4288 12.6875 7.06152 13.0548 7.06152 13.5078V17.7187L10.0421 19.926C10.1788 20.02 10.3409 20.0704 10.5068 20.0703C10.5068 20.0703 11.841 18.3299 11.981 18.2336L12.4905 15.9824L13.9521 13.5078C13.9521 13.0548 13.5849 12.6875 13.1318 12.6875Z" fill="#F6B900"/>
<path d="M13.1318 12.6875H10.5068V20.0703C10.6692 20.0703 10.8316 20.0222 10.9716 19.926L13.9521 17.7187V13.5078C13.9521 13.0548 13.5849 12.6875 13.1318 12.6875Z" fill="#F6B900"/>
<path d="M14.8818 6.17969H6.13184C5.6788 6.17969 5.31152 6.54697 5.31152 7V10.9375C5.31152 13.8022 7.64214 16.1328 10.5068 16.1328C10.5068 16.1328 12.6396 13.8022 12.6396 10.9375L15.7021 7C15.7021 6.54697 15.3349 6.17969 14.8818 6.17969Z" fill="#F6B900"/>
<path d="M14.8818 6.17969H10.5068V16.1328C13.3715 16.1328 15.7021 13.8022 15.7021 10.9375V7C15.7021 6.54697 15.3349 6.17969 14.8818 6.17969Z" fill="#F6B900"/>
<path d="M16.6318 0H8.31934C6.66083 0 5.31152 1.3493 5.31152 3.00781V3.9375C5.31152 4.39053 5.6788 4.75781 6.13184 4.75781H14.8818C15.016 4.75781 15.1482 4.7249 15.2667 4.66195C15.3559 4.61453 17.4521 3.47041 17.4521 0.820312C17.4521 0.367281 17.0849 0 16.6318 0Z" fill="#F6B900"/>
<path d="M15.7568 3.9375H5.25684C4.8038 3.9375 4.43652 4.30478 4.43652 4.75781V7C4.43652 7.45303 4.8038 7.82031 5.25684 7.82031H15.7568C16.2099 7.82031 16.5771 7.45303 16.5771 7V4.75781C16.5771 4.30478 16.2099 3.9375 15.7568 3.9375Z" fill="#B34B1E"/>
</svg>
