<svg width="16" height="16" viewBox="0 0 16 16" fill="none" xmlns="http://www.w3.org/2000/svg">
<g clip-path="url(#clip0_10468_203)">
<path d="M12.6955 1.94796C10.0982 -0.649321 5.90258 -0.649321 3.3386 1.94796C0.741301 4.54525 0.741301 8.70756 3.3386 11.3048L8.0004 15.9999L12.6622 11.3382C15.2595 8.74087 15.2595 4.54525 12.6955 1.94796Z" fill="#B34B1E"/>
<path d="M11.1954 9.80471C9.43055 11.5695 6.60015 11.5695 4.83533 9.80471C3.07051 8.0399 3.07051 5.20952 4.83533 3.4447C6.60015 1.67989 9.43055 1.67989 11.1954 3.4447C12.9269 5.20952 12.9269 8.07321 11.1954 9.80471Z" fill="#F6B900"/>
<path d="M4.33594 6.71036L7.33282 7.30973L7.93219 10.3066L10.4629 4.17969L4.33594 6.71036Z" fill="#B34B1E"/>
</g>
<defs>
<clipPath id="clip0_10468_203">
<rect width="16" height="15.9999" fill="white"/>
</clipPath>
</defs>
</svg>
