<svg width="25" height="28" viewBox="0 0 25 28" fill="none" xmlns="http://www.w3.org/2000/svg">
<path d="M20.7171 3.409C16.1719 -1.13625 8.82952 -1.13625 4.34254 3.409C-0.202723 7.95425 -0.202723 15.2383 4.34254 19.7835L12.5007 28L20.6589 19.8418C25.2041 15.2966 25.2041 7.95425 20.7171 3.409Z" fill="#B34B1E"/>
<path d="M18.0919 17.1583C15.0035 20.2467 10.0503 20.2467 6.96183 17.1583C3.8734 14.0699 3.8734 9.11671 6.96183 6.02829C10.0503 2.93987 15.0035 2.93987 18.0919 6.02829C21.122 9.11671 21.122 14.1282 18.0919 17.1583Z" fill="#F6B900"/>
<path d="M6.08789 11.7432L11.3324 12.7921L12.3813 18.0366L16.8101 7.31451L6.08789 11.7432Z" fill="#B34B1E"/>
</svg>
