<svg width="16" height="12" viewBox="0 0 16 12" fill="none" xmlns="http://www.w3.org/2000/svg">
<path d="M9.33716 7.80206C8.93909 8.06744 8.47672 8.20772 8 8.20772C7.52331 8.20772 7.06094 8.06744 6.66288 7.80206L0.106531 3.43103C0.0703376 3.40683 0.0348139 3.38165 0 3.3555L0 10.5179C0 11.3391 0.666406 11.9908 1.47291 11.9908H14.5271C15.3482 11.9908 16 11.3244 16 10.5179V3.35547C15.9651 3.38168 15.9295 3.40692 15.8932 3.43116L9.33716 7.80206Z" fill="#B34B1E"/>
<path d="M0.626563 2.65131L7.18291 7.02238C7.43109 7.18784 7.71553 7.27056 7.99997 7.27056C8.28444 7.27056 8.56891 7.18781 8.81709 7.02238L15.3734 2.65131C15.7658 2.38991 16 1.95241 16 1.48022C16 0.668313 15.3395 0.0078125 14.5276 0.0078125H1.47241C0.660532 0.00784375 7.75033e-07 0.668344 7.75033e-07 1.481C-0.000242619 1.71263 0.0568447 1.94071 0.166171 2.14492C0.275497 2.34912 0.433664 2.52309 0.626563 2.65131Z" fill="#F6B900"/>
</svg>
