<svg width="17" height="12" viewBox="0 0 17 12" fill="none" xmlns="http://www.w3.org/2000/svg">
<path d="M13.6875 6C12.1406 6 10.875 7.26559 10.875 8.8125C10.875 10.3594 12.1406 11.625 13.6875 11.625C15.2344 11.625 16.5 10.3594 16.5 8.8125C16.5 7.26559 15.2344 6 13.6875 6ZM13.6875 10.6875C12.6563 10.6875 11.8125 9.84372 11.8125 8.8125C11.8125 7.78128 12.6563 6.9375 13.6875 6.9375C14.7187 6.9375 15.5625 7.78128 15.5625 8.8125C15.5625 9.84372 14.7187 10.6875 13.6875 10.6875Z" fill="#B34B1E"/>
<path d="M3.3125 6C1.76559 6 0.5 7.26559 0.5 8.8125C0.5 10.3594 1.76559 11.625 3.3125 11.625C4.85941 11.625 6.125 10.3594 6.125 8.8125C6.125 7.26559 4.85941 6 3.3125 6ZM3.3125 10.6875C2.28128 10.6875 1.4375 9.84372 1.4375 8.8125C1.4375 7.78128 2.28128 6.9375 3.3125 6.9375C4.34372 6.9375 5.1875 7.78128 5.1875 8.8125C5.1875 9.84372 4.34372 10.6875 3.3125 10.6875Z" fill="#B34B1E"/>
<path d="M4.25 3.1875H9V6H4.25V3.1875ZM11.3438 1.3125H10.4062C10.1472 1.3125 9.9375 1.10284 9.9375 0.84375C9.9375 0.584656 10.1472 0.375 10.4062 0.375H11.3438C11.6028 0.375 11.8125 0.584656 11.8125 0.84375C11.8125 1.10284 11.6028 1.3125 11.3438 1.3125Z" fill="#F6B900"/>
<path d="M13.95 9.20444C13.8656 9.25132 13.7812 9.27947 13.6875 9.27947C13.5375 9.27947 13.3875 9.20444 13.2938 9.07325L11.1 5.792C10.95 5.57635 11.0157 5.28572 11.2219 5.13575C11.4375 4.9951 11.7281 5.05135 11.8781 5.26697L13.6875 7.95766L14.0812 8.54822C14.2219 8.76385 14.1656 9.05447 13.95 9.20444ZM8.53125 7.87322V9.74822H3.3125C2.79688 9.74822 2.375 9.32635 2.375 8.81072C2.375 8.2951 2.79688 7.87322 3.3125 7.87322H8.53125Z" fill="#F6B900"/>
<path d="M11.3438 0.375C11.0812 0.375 10.875 0.581219 10.875 0.84375V2.25H9.46875C9.30941 2.25 9.16875 2.32503 9.07503 2.45622L7.30934 5.0625H5.90938L4.41875 2.83125C4.175 2.46563 3.77187 2.25 3.33128 2.25H0.96875C0.706219 2.25 0.5 2.45622 0.5 2.71875C0.5 3.91878 1.40934 4.92184 2.58122 5.04372L4.08125 7.29375C4.325 7.65937 4.72813 7.875 5.16872 7.875H6.30312L6.625 8.46562L6.90625 9.02809C7.13122 9.46875 7.58128 9.75 8.0875 9.75H8.775C9.40309 9.75 9.9375 9.30941 10.0594 8.69063L10.1344 8.36253C10.5094 6.44997 12.2062 5.0625 14.1562 5.0625C14.4188 5.0625 14.625 4.85628 14.625 4.59375V3.65625C14.625 1.84687 13.1531 0.375 11.3438 0.375Z" fill="#B34B1E"/>
</svg>
