<svg id="visual" viewBox="0 0 2500 150" width="2500" height="150" xmlns="http://www.w3.org/2000/svg" xmlns:xlink="http://www.w3.org/1999/xlink" version="1.1"><rect x="0" y="0" width="2500" height="150" fill="#ffffff"></rect><path d="M0 125L52.2 122.5C104.3 120 208.7 115 312.8 116.2C417 117.3 521 124.7 625.2 127.8C729.3 131 833.7 130 937.8 128.5C1042 127 1146 125 1250.2 117.2C1354.3 109.3 1458.7 95.7 1562.8 91.7C1667 87.7 1771 93.3 1875.2 101C1979.3 108.7 2083.7 118.3 2187.8 122.8C2292 127.3 2396 126.7 2448 126.3L2500 126L2500 151L2448 151C2396 151 2292 151 2187.8 151C2083.7 151 1979.3 151 1875.2 151C1771 151 1667 151 1562.8 151C1458.7 151 1354.3 151 1250.2 151C1146 151 1042 151 937.8 151C833.7 151 729.3 151 625.2 151C521 151 417 151 312.8 151C208.7 151 104.3 151 52.2 151L0 151Z" fill="#fefce8" stroke-linecap="round" stroke-linejoin="miter"></path></svg>