<svg width="16" height="16" viewBox="0 0 16 16" fill="none" xmlns="http://www.w3.org/2000/svg">
<g clip-path="url(#clip0_10468_173)">
<circle cx="5.99998" cy="11" r="4" fill="#F6B900"/>
<path d="M7.99999 0C6.41774 0 4.87102 0.469192 3.55543 1.34824C2.23983 2.22729 1.21445 3.47672 0.608952 4.93853C0.00345104 6.40034 -0.154976 8.00887 0.153706 9.56072C0.462388 11.1126 1.22431 12.538 2.34313 13.6569C3.46195 14.7757 4.88742 15.5376 6.43926 15.8463C7.99111 16.155 9.59964 15.9965 11.0615 15.391C12.5233 14.7855 13.7727 13.7602 14.6517 12.4446C15.5308 11.129 16 9.58225 16 8C16 5.87827 15.1571 3.84344 13.6568 2.34315C12.1565 0.842855 10.1217 0 7.99999 0ZM4.74799 1.50182L5.1818 1.80291C5.27775 1.86976 5.3555 1.9595 5.40799 2.064L5.51708 2.28218C5.57495 2.39814 5.66399 2.49567 5.77422 2.56382C5.88444 2.63197 6.01148 2.66805 6.14108 2.668H6.91671C7.10179 2.668 7.27928 2.74152 7.41014 2.87239C7.54101 3.00325 7.61453 3.18074 7.61453 3.36582V3.37964C7.61462 3.50924 7.57856 3.6363 7.51041 3.74653C7.44225 3.85676 7.3447 3.9458 7.22871 4.00364L5.36799 4.93454C5.34195 4.94725 5.3168 4.96171 5.29271 4.97782L4.34035 5.61273C4.23927 5.68024 4.15745 5.77284 4.1029 5.88145L3.96144 6.16582C3.91255 6.26249 3.88708 6.3693 3.88708 6.47764C3.88708 6.58597 3.91255 6.69278 3.96144 6.78945C4.02683 6.92057 4.04934 7.06893 4.02578 7.21354C4.00223 7.35815 3.93379 7.49169 3.83017 7.59527L3.80944 7.61636C3.69941 7.72641 3.55574 7.79649 3.40129 7.81547C3.24684 7.83445 3.09047 7.80122 2.95708 7.72109L1.73999 6.99018C1.59722 6.90436 1.4898 6.77038 1.43708 6.61236L1.13781 5.71418C1.12399 5.71418 1.11417 5.70982 1.10144 5.70945C1.71179 3.87935 3.02323 2.36612 4.74799 1.50182ZM8.75671 10.5902C8.75677 10.6407 8.74866 10.6909 8.73271 10.7389L8.41089 11.704C8.38793 11.7733 8.34908 11.8363 8.29744 11.888L7.71562 12.4698C7.64978 12.5355 7.60497 12.6193 7.58689 12.7105L7.2789 14.2495C7.26465 14.3195 7.23462 14.3854 7.19108 14.4421C7.14753 14.4988 7.09163 14.5449 7.02762 14.5767L6.77526 14.7033C6.68677 14.7472 6.58675 14.7623 6.48924 14.7464C6.39174 14.7306 6.30164 14.6846 6.23162 14.6149L5.76399 14.1473C5.72825 14.1113 5.69843 14.07 5.67562 14.0247L5.37853 13.4305C5.34609 13.3651 5.32916 13.293 5.32908 13.22V11.7196C5.32891 11.6322 5.30449 11.5465 5.25852 11.4721C5.21256 11.3977 5.14685 11.3375 5.06871 11.2982L4.6789 11.1036C4.60533 11.0671 4.54263 11.012 4.49708 10.9436L3.88362 10.0233C3.83197 9.94599 3.80439 9.85513 3.80435 9.76218V9.43491C3.80458 9.34751 3.82904 9.26189 3.875 9.18755C3.92096 9.11322 3.98663 9.05308 4.06471 9.01382L4.42581 8.832C4.51702 8.78659 4.59094 8.71267 4.63635 8.62145L4.81817 8.26036C4.85735 8.18244 4.91731 8.11688 4.99144 8.07093C5.06556 8.02498 5.15096 8.00043 5.23817 8H5.8949C5.95675 7.99995 6.01801 8.0121 6.07516 8.03575C6.13232 8.05939 6.18425 8.09408 6.22799 8.13782L6.33308 8.24291C6.42149 8.33117 6.54124 8.38085 6.66617 8.38109H6.76362C6.88868 8.38157 7.00846 8.43159 7.09672 8.52019C7.18498 8.60879 7.23453 8.72876 7.23453 8.85382C7.23473 8.94118 7.25913 9.02677 7.30503 9.1011C7.35092 9.17544 7.41652 9.2356 7.49453 9.27491L8.49817 9.77636C8.57624 9.8157 8.64187 9.87592 8.68777 9.95032C8.73367 10.0247 8.75804 10.1104 8.75817 10.1978L8.75671 10.5902ZM10.6731 3.67782C10.7055 3.59926 10.7531 3.52785 10.8131 3.46764L11.4643 2.81673C11.5134 2.76769 11.57 2.72681 11.632 2.69564L12.3156 2.35382C12.3753 2.32533 12.4391 2.30631 12.5047 2.29745C13.29 2.91656 13.9396 3.69052 14.4131 4.57127H14.0916C13.9202 4.57128 13.7558 4.50327 13.6345 4.38218L13.556 4.30364C13.4347 4.18244 13.2703 4.11431 13.0989 4.11418H12.6051C12.5041 4.1139 12.4045 4.13731 12.3142 4.18254L11.6734 4.50327C11.5831 4.54835 11.4835 4.57164 11.3825 4.57127H11.2673C11.161 4.5712 11.0564 4.54494 10.9628 4.49483C10.8691 4.44472 10.7892 4.3723 10.7302 4.28397C10.6711 4.19564 10.6348 4.09412 10.6243 3.9884C10.6138 3.88268 10.6296 3.77601 10.6702 3.67782H10.6731ZM13.4145 12.8433L13.3673 12.7273C13.3415 12.6495 13.3283 12.5681 13.3283 12.4862V11.6465C13.3283 11.5283 13.3008 11.4116 13.248 11.3058L12.6465 10.1036C12.5937 9.99781 12.5662 9.88117 12.5662 9.76291V9.65164C12.5661 9.52182 12.533 9.39416 12.4697 9.28077C12.4065 9.16739 12.3154 9.07203 12.205 9.00377C12.0946 8.9355 11.9685 8.89658 11.8388 8.8907C11.7092 8.88482 11.5801 8.91218 11.464 8.97018L11.2033 9.10073C11.0975 9.15348 10.981 9.18099 10.8629 9.18109H10.8298C10.6699 9.18082 10.5141 9.13034 10.3844 9.03678C10.2547 8.94322 10.1576 8.8113 10.1069 8.65963L9.93889 8.15527C9.91295 8.07754 9.89969 7.99613 9.89962 7.91418V7.30291C9.8996 7.17749 9.93056 7.05401 9.98975 6.94344C10.0489 6.83287 10.1345 6.73863 10.2389 6.66909L10.9327 6.20654C11.0053 6.15808 11.0858 6.12253 11.1705 6.10145L12.3509 5.80618C12.4916 5.77105 12.6395 5.77672 12.7771 5.82254L13.5916 6.09418C13.6695 6.12011 13.751 6.13337 13.8331 6.13345H15.0218C15.3374 7.29698 15.3556 8.52115 15.0748 9.69356C14.7939 10.866 14.2231 11.949 13.4145 12.8433Z" fill="#B34B1E"/>
</g>
<defs>
<clipPath id="clip0_10468_173">
<rect width="16" height="16" fill="white"/>
</clipPath>
</defs>
</svg>
